# xmcd
# 
# Track frame offsets:
#     183
#     19833
#     37710
#     53260
#     66540
#     79635
#     98260
#     115358
#     139465
#     159188
#     175900
#     199578
#     212288
#     232205
#     242850
#     258333
#     282323
#     294750
#     313683
# 
# Disc length: 4484
# 
# Revision: 6
# Processed by: cddbd v1.5.2PL0 Copyright (c) Steve Scherf et al.
# Submitted via: fre:ac v1.0.17
# 
DISCID=fd118213
DTITLE=Kern András - Ez van
DYEAR=1995
DGENRE=Blues
TTITLE0=Te majd kézenfogsz és hazavezetsz
TTITLE1=A szomorú bárzongorista dala
TTITLE2=Ez van
TTITLE3=A tükör
TTITLE4=Halálos tangó
TTITLE5=Annyira mégse rossz
TTITLE6=Pesten születtem
TTITLE7=Guváti
TTITLE8=Szerelmünk tárgytalan
TTITLE9=Az élet szép
TTITLE10=Én nem megyek moziba többé
TTITLE11=Mikor leszek szemüveges
TTITLE12=Szép kezû lány
TTITLE13=Esik
TTITLE14=10 perces szerelem
TTITLE15=Látlak Amerika
TTITLE16=Pincér-rock
TTITLE17=Lövölde tér
TTITLE18=Leszállás
EXTD=
EXTT0=
EXTT1=
EXTT2=
EXTT3=
EXTT4=
EXTT5=
EXTT6=
EXTT7=
EXTT8=
EXTT9=
EXTT10=
EXTT11=
EXTT12=
EXTT13=
EXTT14=
EXTT15=
EXTT16=
EXTT17=
EXTT18=
PLAYORDER=
